<svg width="52" height="52" viewBox="0 0 52 52" fill="none" xmlns="http://www.w3.org/2000/svg">
<path fill-rule="evenodd" clip-rule="evenodd" d="M28.1161 7.19554C30.6171 7.47763 33.0076 8.25901 35.1607 9.45636L37.5809 7.25239L45.7327 16.2335L43.3151 18.4348C43.8015 19.5551 44.187 20.7386 44.456 21.978C44.7252 23.2172 44.8657 24.4541 44.8878 25.6755L48 26.6719L46.352 31.8134C46.343 31.8418 36.8741 28.8596 36.8741 28.8596C37.2746 27.1365 37.3097 25.3478 36.9342 23.6171C35.6202 17.5689 29.6599 13.7324 23.6209 15.0483C21.0079 15.6178 18.809 17.0591 17.2609 19.0009L31.157 26.6L6.22684 18.4712C6.71005 16.9175 7.18404 15.3496 7.68933 13.7666L10.805 14.7643C12.2672 12.779 14.1173 11.0733 16.2753 9.77611L15.581 6.58057L27.4219 4L28.1161 7.19554ZM45.7734 33.5288C45.2904 35.0828 44.816 36.6507 44.3107 38.2334L41.195 37.236C39.733 39.2213 37.8829 40.9267 35.725 42.2241L36.4192 45.4194L24.5781 48L23.8839 44.804C21.3834 44.5214 18.9926 43.7407 16.8395 42.5436L14.4191 44.7476L6.26758 35.7667L8.68533 33.565C8.19897 32.4449 7.81328 31.2614 7.54402 30.022C7.27476 28.7828 7.13431 27.5459 7.11224 26.3245L4 25.3281L5.64077 20.1822C5.64077 20.1822 14.5564 23.1146 15.0944 23.2648C14.5389 25.5983 14.831 27.2665 15.066 28.3829C16.3796 34.4314 22.3404 38.2679 28.3791 36.952C30.9921 36.3824 33.1915 34.9411 34.7394 32.9991L20.843 25.4L45.7734 33.5288Z" fill="#FBBA00"/>
</svg>
