<svg width="240" height="41" viewBox="0 0 240 41" fill="none" xmlns="http://www.w3.org/2000/svg">
<path fill-rule="evenodd" clip-rule="evenodd" d="M139.741 3.23707C141.835 3.49524 143.836 4.21037 145.639 5.30619L147.665 3.2891L154.49 11.5086L152.466 13.5233C152.873 14.5486 153.196 15.6318 153.421 16.7661C153.647 17.9001 153.764 19.0322 153.783 20.15L156.389 21.062L155.009 25.7675C155.001 25.7935 147.073 23.0641 147.073 23.0641C147.409 21.4871 147.438 19.8501 147.124 18.2662C146.023 12.7308 141.033 9.21962 135.977 10.424C133.789 10.9452 131.948 12.2643 130.652 14.0414L142.287 20.9961L121.414 13.5567C121.818 12.1346 122.215 10.6997 122.638 9.25098L125.247 10.164C126.471 8.34705 128.02 6.78604 129.827 5.59883L129.245 2.67425L139.159 0.3125L139.741 3.23707ZM154.524 27.3374C154.12 28.7596 153.723 30.1945 153.3 31.643L150.691 30.7302C149.467 32.5472 147.918 34.108 146.111 35.2954L146.692 38.2198L136.778 40.5815L136.197 37.6565C134.104 37.3979 132.102 36.6834 130.299 35.5878L128.273 37.6049L121.448 29.3856L123.472 27.3705C123.065 26.3454 122.742 25.2622 122.516 24.1279C122.291 22.9939 122.173 21.8618 122.155 20.744L119.549 19.8321L120.923 15.1226C120.923 15.1226 128.388 17.8063 128.838 17.9437C128.373 20.0793 128.617 21.6061 128.814 22.6279C129.914 28.1635 134.905 31.6746 139.961 30.4703C142.149 29.9491 143.99 28.63 145.286 26.8526L133.651 19.8979L154.524 27.3374Z" fill="#FBBA00"/>
<path d="M17.4107 28.9062L18.5998 33.6407C18.744 34.2324 19.1403 34.3113 19.7169 34.3113H25.1581C25.7347 34.3113 25.7347 33.8379 25.6267 33.5617L18.5277 9.10075C17.8431 6.77301 16.9783 6.65472 15.2846 6.65472H12.3659C10.7444 6.65472 9.91551 7.0492 9.30296 9.14012L2.20403 33.5617C2.09598 33.9958 2.20403 34.3113 2.67258 34.3113H7.96961C8.79846 34.3113 8.94246 34.0351 9.12261 33.4434L10.3118 28.9062H17.4107ZM11.8252 23.0671L12.582 20.1081L13.8073 14.3086H14.0955L15.2487 19.9898L15.9333 23.0671H11.8252ZM37.3154 28.0777C33.604 28.0777 32.1985 25.4345 32.1985 20.5028C32.1985 15.4922 34.0723 12.8487 37.4237 12.8487C39.1892 12.8487 40.2703 13.1249 42.1803 13.7562C43.0451 14.0718 43.2252 13.9535 43.5496 12.9673L44.8108 9.73206C45.2432 8.6667 45.3151 8.50904 44.4865 8.03562C42.3604 6.73367 39.8739 6.2996 37.0993 6.2996C29.1356 6.2996 24.9916 12.0202 24.9916 20.5028C24.9916 28.6694 28.1628 34.7454 36.6669 34.7454C38.3965 34.7454 42.6848 34.5481 45.8558 32.6543C46.8648 32.023 46.9369 31.1946 46.9369 30.2872V23.1461C46.9369 20.1477 46.108 18.6879 43.982 18.0961C43.1531 17.82 42.2883 17.741 41.0271 17.741C38.7209 17.741 36.3785 18.4117 34.6849 19.0823C34.0723 19.3585 34.1804 19.6743 34.2886 20.1081L35.3336 24.2112C35.5858 24.8821 35.73 24.8821 36.4868 24.5663C37.3516 24.2112 38.3244 23.935 39.3334 23.8167C39.6216 23.7774 40.0902 23.7378 40.3784 23.7378L40.3424 27.6437C39.3334 27.9594 38.4325 28.0777 37.3154 28.0777ZM69.6882 33.2855L67.9946 25.7893C67.5622 23.7378 66.9495 22.002 65.256 21.1735V21.0945C67.31 19.9898 68.6431 17.6227 68.6431 14.7558C68.6431 9.69247 65.7244 6.65472 60.0668 6.65472H50.878C48.8962 6.65472 48.5359 7.64092 48.5359 9.25864V33.5224C48.5359 34.0351 48.8241 34.3113 49.3647 34.3113H54.4816C55.3104 34.3113 55.3464 34.1534 55.3464 33.5224V23.5012H58.1571C59.9949 23.5012 60.6075 24.4874 61.1479 26.7364L62.5893 33.3249C62.8416 34.3903 63.3101 34.3113 64.0669 34.3113H69.0396C69.9044 34.3113 69.7963 33.6407 69.6882 33.2855ZM61.6165 15.3541C61.6165 16.9058 60.6075 17.6621 59.4543 17.6621H55.3464V13.0856H59.4543C61.0399 13.0856 61.6165 14.2363 61.6165 15.3541ZM92.62 20.4632C92.62 11.823 88.9804 6.26025 81.1969 6.26025C73.7378 6.26025 69.8099 11.8625 69.8099 20.5422C69.8099 29.419 73.2693 34.7454 81.0888 34.7454C89.3048 34.7454 92.62 29.3007 92.62 20.4632ZM85.449 20.5028C85.449 24.527 84.5121 28.0777 81.3411 28.0777C78.0618 28.0777 77.0169 25.0793 77.0169 20.2266C77.0169 16.2812 78.3502 12.8883 81.1609 12.8883C84.5482 12.8883 85.3409 16.3601 85.449 20.5028Z" fill="white"/>
<path d="M99.4238 14.3484C99.4238 19.0826 103.279 21.1735 108.288 23.1857C110.919 24.2509 111.099 24.8821 111.099 25.7894C111.099 26.4601 110.738 27.5254 108.468 27.5254C105.802 27.5254 102.631 26.5786 101.154 25.9473C100.433 25.6318 100.181 25.6317 99.8564 26.539L98.4509 30.287C98.1627 31.0762 98.2348 31.3917 98.7032 31.7073C101.586 33.6405 105.405 34.2718 108.685 34.2718C114.918 34.2718 118.486 31.4311 118.486 25.7501C118.486 20.5029 114.954 18.4513 109.189 16.0449C106.811 15.0978 106.523 14.3484 106.523 13.7171C106.523 12.9675 106.919 12.3758 108.613 12.3758C110.486 12.3758 112.792 12.7307 114.846 13.362C115.675 13.6382 115.855 13.5593 116.18 12.5731L117.153 9.2985C117.549 8.19378 117.585 8.0359 116.756 7.60207C114.702 6.37905 111.423 5.78711 108.504 5.78711C102.126 5.78711 99.4238 9.77191 99.4238 14.3484ZM165.146 33.8377H175.668C176.172 33.8377 176.424 33.5222 176.424 32.9303V28.4723C176.424 27.5648 176.244 27.5254 175.668 27.5254H167.128C165.867 27.5254 164.966 27.3675 164.966 25.3556V7.01012C164.966 6.37905 164.93 6.18181 164.101 6.18181H158.948C158.407 6.18181 158.119 6.45799 158.119 7.01012L158.155 26.3418C158.155 29.8532 159.416 33.8377 165.146 33.8377ZM193.194 28.4327L194.383 33.1671C194.527 33.7588 194.923 33.8377 195.5 33.8377H200.941C201.517 33.8377 201.517 33.3643 201.409 33.0881L194.311 8.62784C193.626 6.30011 192.761 6.18181 191.068 6.18181H188.149C186.527 6.18181 185.699 6.57628 185.086 8.66719L177.987 33.0881C177.879 33.5222 177.987 33.8377 178.456 33.8377H183.753C184.581 33.8377 184.726 33.5616 184.906 32.9698L186.095 28.4327H193.194ZM187.608 22.5938L188.365 19.635L189.59 13.8354H189.879L191.032 19.5167L191.716 22.5938H187.608Z" fill="white"/>
<path d="M223.685 32.8118L221.991 25.3158C221.559 23.2643 220.946 21.5285 219.252 20.7V20.621C221.306 19.5165 222.64 17.1492 222.64 14.2824C222.64 9.21938 219.721 6.18164 214.064 6.18164H204.875C202.893 6.18164 202.533 7.16783 202.533 8.78533V33.0486C202.533 33.5614 202.821 33.8376 203.361 33.8376H208.478C209.307 33.8376 209.343 33.6797 209.343 33.0486V23.0277H212.154C213.991 23.0277 214.604 24.0139 215.145 26.2627L216.586 32.8511C216.838 33.9165 217.307 33.8376 218.063 33.8376H223.036C223.901 33.8376 223.793 33.1669 223.685 32.8118ZM215.613 14.8808C215.613 16.4325 214.604 17.1888 213.451 17.1888H209.343V12.6122H213.451C215.036 12.6122 215.613 13.763 215.613 14.8808Z" fill="white"/>
</svg>
